<?xml version="1.0" encoding="UTF-8" standalone="no"?>
<svg
   xmlns:dc="http://purl.org/dc/elements/1.1/"
   xmlns:cc="http://creativecommons.org/ns#"
   xmlns:rdf="http://www.w3.org/1999/02/22-rdf-syntax-ns#"
   xmlns:svg="http://www.w3.org/2000/svg"
   xmlns="http://www.w3.org/2000/svg"
   xmlns:sodipodi="http://sodipodi.sourceforge.net/DTD/sodipodi-0.dtd"
   xmlns:inkscape="http://www.inkscape.org/namespaces/inkscape"
   width="231.8593"
   height="60.875698"
   viewBox="0 0 231.8593 60.875698"
   version="1.1"
   id="svg27"
   sodipodi:docname="logo_swapcard.svg"
   inkscape:version="1.0.2 (394de47547, 2021-03-26)">
  <metadata
     id="metadata33">
    <rdf:RDF>
      <cc:Work
         rdf:about="">
        <dc:format>image/svg+xml</dc:format>
        <dc:type
           rdf:resource="http://purl.org/dc/dcmitype/StillImage" />
        <dc:title>Logo</dc:title>
      </cc:Work>
    </rdf:RDF>
  </metadata>
  <defs
     id="defs31" />
  <sodipodi:namedview
     pagecolor="#ffffff"
     bordercolor="#666666"
     borderopacity="1"
     objecttolerance="10"
     gridtolerance="10"
     guidetolerance="10"
     inkscape:pageopacity="0"
     inkscape:pageshadow="2"
     inkscape:window-width="1920"
     inkscape:window-height="1016"
     id="namedview29"
     showgrid="false"
     inkscape:pagecheckerboard="true"
     fit-margin-top="0"
     fit-margin-left="0"
     fit-margin-right="0"
     fit-margin-bottom="0"
     inkscape:zoom="4.6678571"
     inkscape:cx="146.46553"
     inkscape:cy="21.090048"
     inkscape:window-x="0"
     inkscape:window-y="27"
     inkscape:window-maximized="1"
     inkscape:current-layer="Digital" />
  <!-- Generator: Sketch 52.3 (67297) - http://www.bohemiancoding.com/sketch -->
  <title
     id="title2">Logo</title>
  <desc
     id="desc4">Created with Sketch.</desc>
  <g
     id="Digital"
     stroke="none"
     stroke-width="1"
     fill="none"
     fill-rule="evenodd"
     transform="translate(1.5310119e-5,-5.956568)">
    <g
       id="Logo">
      <path
         d="m 211.41,19.0624 c 0.1344,-0.1204 0.20253,-0.297733 0.18387,-0.477867 -0.0187,-0.180133 -0.12134,-0.3388 -0.2772,-0.430266 -1.91614,-1.116267 -4.14214,-1.7584 -6.51467,-1.7584 -2.4808,0 -4.802,0.700933 -6.776,1.913333 v -0.732667 c 0,-0.651466 -0.52827,-1.180666 -1.18067,-1.180666 h -3.85 c -0.65146,0 -1.18066,0.528266 -1.18066,1.180666 V 29.381333 49.938 c 0,0.651467 0.52826,1.180667 1.18066,1.180667 h 3.85 c 0.65147,0 1.18067,-0.528267 1.18067,-1.180667 V 29.381333 c 0,-3.736133 3.03987,-6.775066 6.776,-6.775066 0.91187,0 1.77987,0.181066 2.57413,0.508666 0.24827,0.102667 0.532,0.0168 0.68227,-0.206266 0.73173,-1.082667 1.58107,-2.115867 2.5564,-3.0912 0.25667,-0.259467 0.5236,-0.510534 0.7952,-0.755067 z"
         id="path7"
         fill="#00cc88" />
      <path
         d="m 187.96467,34.118287 c 0.1764,-4.6032 -1.3944,-8.652933 -4.66854,-12.043733 -3.206,-3.383334 -7.20813,-5.1884 -11.88693,-5.362934 -4.86733,-0.183866 -9.04213,1.4952 -12.4488,4.959734 -3.43373,3.436533 -5.1828,7.628133 -5.1828,12.459066 0,4.612534 1.62587,8.670667 4.83467,12.058667 3.17706,3.344133 7.12133,5.125867 11.73573,5.305067 0.21373,0.0065 0.4172,0.0112 0.6272,0.0112 4.02173,0 7.58053,-1.314134 10.6204,-3.905067 v 2.7244 c 0,0.651467 0.52827,1.180667 1.18067,1.180667 h 4.00866 c 0.65147,0 1.18067,-0.528267 1.18067,-1.180667 v -16.0328 -0.1736 z m -9.70294,7.774667 c -2.0524,2.142 -4.41186,3.184533 -7.23333,3.184533 -0.1792,0 -0.36867,-0.01307 -0.55253,-0.02147 -2.9036,-0.1456 -5.29014,-1.2796 -7.28094,-3.4692 -1.99826,-2.1952 -2.95026,-4.741333 -2.89893,-7.770933 0.0485,-3.024 1.09107,-5.517867 3.1892,-7.608533 2.10747,-2.1056 4.59013,-3.1332 7.58707,-3.1332 2.87466,0 5.2444,1.021066 7.2408,3.115466 2.07573,2.170934 3.10146,4.648 3.1556,7.570267 0.0485,3.1696 -1.00147,5.822133 -3.20694,8.133067 z"
         id="path9"
         fill="#00cc88" />
      <g
         id="Group"
         transform="translate(116.66667,15.866667)">
        <path
           d="M 1.1190667,28.858667 C 0.98186667,28.6524 0.72333333,28.561867 0.4844,28.6328 0.24546667,28.703733 0.08306667,28.923067 0.08306667,29.1704 v 20.621067 c 0,0.648666 0.52826666,1.174133 1.18160003,1.174133 h 4.4202666 c 0.6524,0 1.1816,-0.524533 1.1816,-1.174133 v -14.658 c 0,-0.384534 -0.1894666,-0.745734 -0.5077333,-0.966 C 4.2933333,32.745067 2.5116,30.94 1.1190667,28.858667 Z"
           id="path11"
           fill="#262f3d"
           style="fill:#ffffff;fill-opacity:1" />
        <path
           d="m 63.824133,12.4908 c -1.886266,-3.0809333 -5.296666,-5.1426667 -9.184,-5.1426667 -2.646933,0 -5.1884,0.9622667 -7.158666,2.7141337 -0.368667,0.326666 -0.718667,0.6832 -1.0388,1.059333 L 31.528933,28.587067 c -0.665466,0.8624 -1.4112,1.667866 -2.239066,2.404266 -3.2144,2.856934 -7.364,4.4296 -11.680667,4.4296 -9.6637333,0 -17.5252,-7.807333 -17.5252,-17.4048 0,-9.5974663 7.8614667,-17.40479967 17.5252,-17.40479967 5.166,0 10.044533,2.24746667 13.384,6.16653337 l 3.5196,4.1328003 c 0.178267,0.21 0.178267,0.516133 0,0.7252 l -3.7072,4.341866 c -0.1064,0.126 -0.265067,0.1988 -0.4312,0.196934 -0.166133,0 -0.3248,-0.07093 -0.432133,-0.1988 L 25.817867,11.1356 25.8132,11.13 C 23.764533,8.7257333 20.775067,7.3472 17.608267,7.3472 11.685333,7.3472 6.8656,12.1324 6.8656,18.0152 c 0,5.8828 4.819733,10.668 10.742667,10.668 2.646,0 5.1884,-0.964133 7.1568,-2.714133 C 24.9676,25.7908 42.3584,5.572 42.9576,5.04 c 3.215333,-2.8569333 7.364,-4.4296 11.6816,-4.4296 7.320133,0 13.603333,4.4828 16.222267,10.826667 0.1484,0.363066 0.1064,0.774666 -0.112934,1.099466 -0.2184,0.3248 -0.587066,0.519867 -0.980933,0.519867 H 64.834 c -0.413467,-9.33e-4 -0.797067,-0.214667 -1.009867,-0.5656 z"
           id="path13"
           fill="#332f3d"
           style="fill:#ffffff;fill-opacity:1" />
      </g>
      <path
         d="M 113.09573,33.8184 C 113.2712,29.2152 111.6976,25.165467 108.4272,21.774667 105.2156,18.3876 101.2144,16.5844 96.534667,16.411733 c -4.8524,-0.183866 -9.0384,1.4952 -12.445067,4.959734 -3.436533,3.436533 -5.179067,7.628133 -5.179067,12.459066 0,4.612534 1.625867,8.670667 4.830934,12.058667 3.173333,3.344133 7.119466,5.125867 11.733866,5.305067 0.211867,0.0065 0.420934,0.0112 0.630934,0.0112 4.017063,0 7.576803,-1.314134 10.616663,-3.905067 v 2.7244 c 0,0.651467 0.52827,1.180667 1.18067,1.180667 h 4.01427 c 0.65146,0 1.18066,-0.528267 1.18066,-1.180667 V 33.992 l -0.003,-0.1736 z M 96.217333,22.7808 c 2.8784,0 5.248137,1.021067 7.243597,3.115467 2.072,2.1728 3.1052,4.648 3.15094,7.570266 0.0532,3.1696 -0.99494,5.822134 -3.20414,8.132134 -2.04586,2.143866 -4.41093,3.1864 -7.226797,3.1864 -0.182,0 -0.3696,-0.0056 -0.552533,-0.0196 -2.9092,-0.1456 -5.293867,-1.283334 -7.2856,-3.471067 -2.002933,-2.1952 -2.950267,-4.741333 -2.897067,-7.770933 0.04853,-3.024 1.092,-5.514134 3.185467,-7.608534 2.1084,-2.1056 4.592933,-3.134133 7.586133,-3.134133 z"
         id="path18"
         fill="#262f3d"
         style="fill:#ffffff;fill-opacity:1" />
      <path
         d="m 70.1372,16.3968 c -0.651467,0 -1.180667,0.528267 -1.180667,1.180667 v 20.556666 c 0,3.7352 -3.038933,6.775067 -6.775066,6.775067 -3.736134,0 -6.775067,-3.039867 -6.775067,-6.775067 V 17.577467 C 55.4064,16.926 54.878133,16.3968 54.225733,16.3968 h -3.85 c -0.651466,0 -1.180666,0.528267 -1.180666,1.180667 v 20.556666 c 0,3.7352 -3.039867,6.775067 -6.776,6.775067 -3.7352,0 -6.776,-3.039867 -6.776,-6.775067 V 17.577467 C 35.643067,16.926 35.1148,16.3968 34.4624,16.3968 h -3.849067 c -0.651466,0 -1.180666,0.528267 -1.180666,1.180667 v 20.556666 c 0,7.160534 5.824933,12.985467 12.985466,12.985467 3.952667,0 7.496534,-1.777067 9.880267,-4.5724 2.384667,2.795333 5.928533,4.5724 9.8812,4.5724 7.160533,0 12.985467,-5.824933 12.985467,-12.985467 V 17.577467 C 75.165067,16.926 74.6368,16.3968 73.9844,16.3968 Z"
         id="path20"
         fill="#262f3d"
         style="fill:#ffffff;fill-opacity:1" />
      <path
         d="M 20.369067,32.6704 C 16.7328,30.786 14.144667,30.716933 11.050667,29.8676 7.7868,28.9716 6.1581333,27.933733 6.5165333,25.437067 6.9029333,22.7444 9.1681333,21.602 12.418,21.6244 c 5.0736,0.03453 6.314,2.747733 6.6136,4.232667 0.110133,0.550666 0.5936,0.947333 1.154533,0.947333 l 4.606934,9.33e-4 c 0.2324,0 0.4536,-0.09987 0.6076,-0.275333 0.153066,-0.175467 0.223066,-0.407867 0.1932,-0.639333 -0.332267,-2.5368 -2.2316,-9.4808 -13.0424,-9.471467 C 1.5950667,16.428533 -0.04573333,23.1392 9.3333333e-4,26.487067 0.0728,31.765067 5.2266667,34.058267 6.8712,34.668667 c 1.5437333,0.569333 6.944,1.810666 8.0948,2.216666 4.033867,1.4224 4.245733,3.304934 4.209333,4.437067 0.02053,2.655333 -2.325866,4.4996 -6.329866,4.284933 C 8.2861333,45.360933 7.0513333,41.625733 6.72,39.816 6.6182667,39.256 6.1301333,38.849067 5.5617333,38.848133 l -4.2214666,-0.0019 c -0.34160003,0 -0.66733337,0.1484 -0.89133337,0.406933 C 0.224,39.511733 0.12133333,39.856133 0.16986667,40.194933 0.39573333,41.763867 0.994,44.389333 2.5666667,46.3568 4.9130667,49.290267 7.168,51.110267 13.5912,51.110267 c 7.56,0 11.3008,-3.990934 11.993333,-8.499867 0.519867,-3.3908 -0.457333,-7.474133 -5.215466,-9.94 z"
         id="path22"
         fill="#262f3d"
         style="fill:#ffffff;fill-opacity:1" />
    </g>
    <g
       aria-label="t"
       id="text886"
       style="font-style:normal;font-weight:normal;font-size:53.3333px;line-height:1.25;font-family:sans-serif;fill:#00cc88;fill-opacity:1;stroke:none"
       transform="translate(-50.192283,25.940127)">
      <path
         d="m 264.54568,-19.983559 h 5.96079 V 0.50270311 h 11.54509 V 6.4321113 h -11.54509 v 3.0117629 q 0.0314,3.2313708 1.56862,5.8352908 1.53726,2.60392 4.14118,4.172546 2.63529,1.537254 5.83529,1.537254 v 5.929409 q -4.8,0 -8.78431,-2.35294 -3.95294,-2.35294 -6.30588,-6.274506 -2.35294,-3.952939 -2.41569,-8.7843087 z"
         style="font-style:normal;font-variant:normal;font-weight:normal;font-stretch:normal;font-size:53.3333px;font-family:Fidena;-inkscape-font-specification:Fidena;fill:#00cc88;fill-opacity:1"
         id="path888" />
    </g>
  </g>
</svg>
